<svg version="1.1" id="Layer_1" xmlns="http://www.w3.org/2000/svg" xmlns:xlink="http://www.w3.org/1999/xlink" x="0px" y="0px" viewBox="0 0 432.7 100" style="enable-background:new 0 0 432.7 100;" xml:space="preserve" aria-labelledby="title desc">
<title id="title">UK HealthCare Logo</title>
<desc id="desc">An interlocking U and K to the left of the word "Healthcare."</desc>
<g>
  <g>
    <g>
      <polygon points="35.6,48.9 28.9,48.9 28.9,13.3 35.6,13.3 35.6,4.4 4.4,4.4 4.4,13.3 11.1,13.3 11.1,48.9 20,57.8 35.6,57.8      
        "></polygon>
      <polygon points="57.8,57.8 73.3,57.8 82.2,48.9 82.2,13.3 88.9,13.3 88.9,4.4 57.8,4.4 57.8,13.3 64.4,13.3 64.4,48.9 57.8,48.9 
              "></polygon>
      <polygon points="89.4,66.1 108.9,46.7 117.8,46.7 117.8,37.8 84.4,37.8 84.4,46.7 87.8,46.7 74.4,60 55.6,60 55.6,46.7 
        62.2,46.7 62.2,37.8 31.1,37.8 31.1,46.7 37.8,46.7 37.8,86.7 31.1,86.7 31.1,95.5 62.2,95.5 62.2,86.7 55.6,86.7 55.6,73.3 
        74.4,73.3 87.8,86.7 84.4,86.7 84.4,95.5 117.8,95.5 117.8,86.7 110,86.7      "></polygon>
      <path d="M112.2,82.2L96.1,66.1l15-15h11.1V33.3H86.6V17.8h6.7V0h-40l0,0v17.8l0,0H60v15.6H33.3V17.8H40l0,0V0l0,0H0v17.8h6.7
        v33.3l0,0l0,0l11.1,11.1h15.6v20h-6.7V100h40V82.2H60v-4.4h12.2l7.8,7.8V100h42.2V82.2l0,0H112.2z M120,97.8H82.2V84.5l0,0
        l-8.9-8.9H57.7v8.9h6.7v13.3H28.9V84.5h6.7V60H18.9l-10-10V15.6l0,0H2.2V2.2h35.6v13.3h-6.7v20h31.1v-20h-6.7V2.2h35.6v13.3h-6.7
        v20H120v13.3h-10L92.8,66l18.3,18.3h8.9V97.8z"></path>
    </g>
  </g>
  <g>
    <path d="M174.3,32.9l-6.5-1.1v-1.6h19.1v1.6l-6.8,1.1v34.2l6.8,1.1v1.6h-19.1v-1.6l6.5-1.1V50.5h-21.7v16.6l6.5,1.1v1.6H140v-1.6
      l6.8-1.1V32.9l-6.8-1.1v-1.6h19v1.6l-6.5,1.1V48h21.7V32.9H174.3z"></path>
    <path d="M193.5,54.3c-0.2,7.8,3,12.5,10.4,12.5c2.9,0,5.1-0.9,8.6-2.9l0.5,1.3c-3.9,3.7-7.3,5.6-11.4,5.6c-8,0-13.5-5.8-13.5-14.5
      c0-8.8,5.9-15.3,13.6-15.3s11.4,6.4,11.4,13.3H193.5z M207.4,52c-0.2-6-2.3-9.2-6.3-9.2c-4.2,0-7.2,4-7.6,9.6L207.4,52z"></path>
    <path d="M238.5,65.3c0,1.8,1.1,2.6,5.2,2.4l0.1,0.9c-1.2,0.8-4.2,1.9-6.4,1.9c-2.4,0-3.5-1.2-3.7-4.5l-0.6-0.1
      c-3,3-5.8,4.6-8.9,4.6c-4.2,0-6.8-2.6-6.8-6.3c0-5.6,6.9-9.3,16-10.1v-3.8c0-4.8-2.1-6.5-6.4-6.5c-2.2,0-3.7,0.6-4.8,1.3
      c1.4,0.9,2.4,2.2,2.4,3.4c0,1.8-1.4,3-3.1,3c-1.9,0-3.2-1.2-3.2-3.1c0-4.2,6.5-7.3,12.4-7.3c5.3,0,7.7,2.6,7.7,8.2L238.5,65.3
      L238.5,65.3z M233.5,55.8c-7.8,0-11.1,2.9-11.1,6.5c0,3,1.7,4.7,4.5,4.7c1.7,0,4.2-0.9,6.6-2.6V55.8z"></path>
    <path d="M259.2,68.5v1.3h-13.6v-1.3l4.4-1.1v-38l-4.8-2v-1.1l9.3-2.4l0.6,0.4v43.2L259.2,68.5z"></path>
    <path d="M271.6,70.3c-4,0-6.1-2.4-6.1-7.1V44.8h-4.8v-1.3L266,41l2.9-7.4h1.6v8h9.6v3.1h-9.6v16.7c0,2.2,0.3,3.7,1.6,4.5
      c0.8,0.6,1.8,0.7,4,0.7c1,0,2.5-0.1,4.1-0.4l0.1,1.1C277.5,69.1,274.5,70.3,271.6,70.3z"></path>
    <path d="M299.4,44.7c-2.9,0-5.2,1-7.9,2.9v19.8l4.2,1.1v1.3h-13.6v-1.3l4.4-1.1v-38l-4.8-2v-1.1l9.3-2.4l0.6,0.4V46l0.2,0.1
      c2.7-2.5,6-5,10.6-5c5.3,0,8,3.6,8,8.6v17.8l4.4,1.1v1.3H301v-1.3l4.2-1.1V51.6C305.2,47.3,303.4,44.7,299.4,44.7z"></path>
    <path d="M350.6,67.5c-4,2.1-7.2,3.3-12.9,3.3c-12.5,0-21.2-8.1-21.2-20.3c0-12.5,9.7-21.1,21-21.1c3.2,0,6.8,0.9,9.4,1.9l2.1-2.1
      h1.3l0.5,13.3l-1.3,0.1c-3.5-7-7.4-11.2-13.2-11.2c-7.3,0-13,6.7-13,18.5c0,12.7,7.1,18.6,15.6,18.6c1.9,0,3.5-0.3,4.9-0.9
      l7.1-8.5l0.9,0.2L350.6,67.5z"></path>
    <path d="M377.6,65.3c0,1.8,1.1,2.6,5.2,2.4l0.1,0.9c-1.2,0.8-4.2,1.9-6.4,1.9c-2.4,0-3.5-1.2-3.7-4.5l-0.6-0.1
      c-3,3-5.8,4.6-8.9,4.6c-4.2,0-6.8-2.6-6.8-6.3c0-5.6,6.9-9.3,16-10.1v-3.8c0-4.8-2.1-6.5-6.4-6.5c-2.2,0-3.7,0.6-4.8,1.3
      c1.4,0.9,2.4,2.2,2.4,3.4c0,1.8-1.4,3-3.1,3c-1.9,0-3.2-1.2-3.2-3.1c0-4.2,6.5-7.3,12.4-7.3c5.3,0,7.7,2.6,7.7,8.2L377.6,65.3
      L377.6,65.3z M372.6,55.8c-7.8,0-11.1,2.9-11.1,6.5c0,3,1.7,4.7,4.5,4.7c1.7,0,4.2-0.9,6.6-2.6V55.8z"></path>
    <path d="M403.2,48.6c-2.3,0-3.5-2.1-3-4.1c-2.1-0.3-4.7,2.2-6.2,4.8v18.1l4.6,1.1v1.3h-14v-1.3l4.4-1.1V46.2l-4.3-2v-1.1l8.8-2.2
      l0.6,0.5l-0.5,5.4L394,47c2.7-4.3,5.1-6,8-6c2.7,0,4.5,1.6,4.5,3.9C406.5,47.2,404.9,48.6,403.2,48.6z"></path>
    <path d="M413.1,54.3c-0.2,7.8,3,12.5,10.4,12.5c2.9,0,5.1-0.9,8.6-2.9l0.5,1.3c-3.9,3.7-7.3,5.6-11.4,5.6c-8,0-13.5-5.8-13.5-14.5
      c0-8.8,5.9-15.3,13.6-15.3s11.4,6.4,11.4,13.3H413.1z M427.1,52c-0.2-6-2.3-9.2-6.3-9.2c-4.2,0-7.2,4-7.6,9.6L427.1,52z"></path>
  </g>
</g>
</svg>
